# xmcd
#
# Track frame offsets:
#	150
#	20325
#	39491
#	54457
#	65311
#	77223
#	93537
#	107338
#	124514
#	142186
#	154375
#	169526
#	184178
#	199785
#
# Disc length: 2864 seconds
# Revision: 0
# Processed by: cddbd v1.5.2PL0 Copyright (c) Steve Scherf et al.
# Submitted via: dBpowerAMP V12.0
#
DISCID=b80b2e0e
DTITLE=Jean-Claude Stelandre - Temporel
DYEAR=2009
DGENRE=Chanson
TTITLE0=Avec le temps
TTITLE1=La chanson des vieux amants
TTITLE2=Les moulins de mon coeur
TTITLE3=La valse d'amour
TTITLE4=Mon enfance m'appelle
TTITLE5=Et moi dans mon coin
TTITLE6=Venise va mourir
TTITLE7=Comme un p'tit coquelicot
TTITLE8=La langue de chez nous
TTITLE9=Mon emouvant amour
TTITLE10=La quete
TTITLE11=Et pourtant
TTITLE12=Vieux marin
TTITLE13=Pourquoi
EXTD=
EXTT0=
EXTT1=
EXTT2=
EXTT3=
EXTT4=
EXTT5=
EXTT6=
EXTT7=
EXTT8=
EXTT9=
EXTT10=
EXTT11=
EXTT12=
EXTT13=
PLAYORDER=
